<?xml version="1.0" standalone="no"?>
<!DOCTYPE svg PUBLIC "-//W3C//DTD SVG 20010904//EN"
 "http://www.w3.org/TR/2001/REC-SVG-20010904/DTD/svg10.dtd">
<svg version="1.0" xmlns="http://www.w3.org/2000/svg"
 width="1024.000000pt" height="1024.000000pt" viewBox="0 0 1024.000000 1024.000000"
 preserveAspectRatio="xMidYMid meet">

<g transform="translate(0.000000,1024.000000) scale(0.100000,-0.100000)"
fill="#000000" stroke="none">
<path d="M5040 7670 c-8 -5 -12 -12 -9 -15 4 -3 12 1 19 10 14 17 11 19 -10 5z"/>
<path d="M5012 7594 c-14 -50 -8 -72 14 -53 7 6 11 16 7 22 -3 5 -6 25 -5 44
1 18 0 33 -1 33 -2 0 -8 -21 -15 -46z"/>
<path d="M4684 7515 c-9 -14 -20 -23 -24 -20 -10 6 1 -34 22 -86 14 -33 14
-38 -2 -60 -22 -28 -18 -38 13 -32 14 3 29 -2 36 -11 8 -9 10 -16 5 -16 -4 0
0 -6 11 -13 22 -17 12 -37 -20 -37 -13 0 -35 -4 -49 -10 -21 -7 -26 -6 -26 5
0 8 -3 14 -7 13 -22 -5 -122 16 -117 24 4 6 -2 8 -11 6 -12 -2 -25 -22 -36
-53 -27 -78 -25 -89 31 -132 46 -36 49 -41 50 -85 0 -46 -2 -49 -55 -89 -61
-46 -60 -41 -23 -136 l20 -53 59 0 c43 0 64 -5 76 -17 17 -17 20 -14 75 69 52
77 57 89 48 113 -22 59 -10 204 25 287 6 15 2 17 -30 13 -40 -5 -45 10 -9 29
10 6 21 13 24 16 10 10 31 10 25 0 -3 -5 0 -10 8 -10 8 0 26 15 40 33 14 18
41 44 61 58 20 13 36 26 36 29 0 10 -63 29 -73 23 -6 -4 -8 0 -4 10 3 10 2 17
-3 17 -5 0 -11 -8 -13 -17 -4 -14 -5 -13 -6 4 -1 15 -6 21 -15 17 -8 -3 -19 3
-25 15 -8 14 -18 18 -37 15 -14 -3 -23 -1 -20 5 3 5 0 9 -7 8 -42 -1 -50 3
-36 19 16 20 20 42 8 50 -5 3 -7 10 -4 15 14 21 -6 7 -21 -16z m70 -111 c3 -8
2 -12 -4 -9 -6 3 -10 10 -10 16 0 14 7 11 14 -7z"/>
<path d="M5526 7532 c-3 -5 1 -15 8 -21 11 -10 14 -9 12 3 -3 21 -13 29 -20
18z"/>
<path d="M5095 7491 c-3 -6 3 -9 14 -8 11 0 17 5 15 9 -7 11 -22 10 -29 -1z"/>
<path d="M5084 7420 c-1 -28 1 -30 37 -30 21 0 41 6 45 13 4 6 4 9 -1 5 -4 -4
-14 0 -22 8 -9 8 -22 13 -29 10 -8 -3 -14 1 -14 9 0 29 -15 15 -16 -15z"/>
<path d="M5530 7434 c0 -8 -4 -13 -9 -10 -5 3 -11 -3 -14 -14 -3 -12 -14 -20
-27 -20 -14 0 -19 4 -14 13 5 7 0 6 -11 -3 -10 -8 -16 -10 -12 -4 4 7 1 14 -7
17 -10 4 -13 -2 -11 -23 2 -22 -1 -27 -16 -23 -10 3 -16 9 -13 14 3 6 -9 1
-27 -10 -44 -27 -48 -59 -6 -52 4 0 6 -5 5 -11 -2 -7 3 -12 10 -10 8 1 11 -1
8 -6 -3 -5 6 -20 21 -33 18 -16 27 -20 30 -11 3 6 12 12 21 12 14 0 14 2 3 9
-11 7 -10 11 6 20 11 5 23 7 27 3 4 -3 4 1 0 11 -5 13 2 21 27 31 19 8 38 12
44 8 5 -3 2 4 -8 15 -14 16 -16 26 -7 47 13 34 13 33 -5 40 -9 3 -15 0 -15
-10z"/>
<path d="M5718 7268 c-7 -7 -31 -14 -53 -15 -22 -1 -73 -3 -112 -5 -40 -1 -73
-4 -73 -6 0 -2 4 -12 10 -22 7 -13 6 -19 -5 -24 -8 -3 -15 -1 -15 5 0 6 -4 8
-9 5 -4 -3 0 -30 11 -61 27 -80 32 -160 15 -224 l-15 -55 51 -75 c28 -42 52
-78 54 -80 2 -3 9 1 15 7 7 7 41 12 80 12 37 0 68 1 68 3 0 1 9 27 20 57 11
30 20 63 20 72 0 10 -22 34 -50 55 -49 36 -50 39 -50 88 0 49 2 52 45 83 25
18 48 39 51 47 5 13 -32 145 -41 145 -2 0 -10 -6 -17 -12z m-208 -89 c0 -12
-19 -21 -30 -14 -6 4 -8 10 -6 14 7 10 36 10 36 0z"/>
<path d="M5047 7022 c-32 -32 -54 -62 -50 -67 5 -4 3 -5 -4 -1 -25 14 -199
-218 -275 -368 -109 -217 -142 -349 -142 -571 0 -121 4 -167 22 -237 21 -86
66 -195 95 -232 14 -19 16 -18 36 23 29 55 61 182 61 238 l0 43 -54 0 c-96 0
-158 70 -135 152 11 43 417 532 459 553 64 33 122 12 190 -70 19 -23 104 -125
189 -226 186 -221 201 -242 201 -286 0 -76 -55 -123 -144 -123 l-46 0 0 -53
c0 -66 22 -152 56 -219 l26 -52 18 22 c10 12 32 54 48 94 149 359 52 835 -245
1203 -27 33 -55 60 -63 60 -7 0 -15 7 -17 15 -4 13 -3 13 6 0 6 -8 11 -10 11
-4 0 6 -12 21 -27 35 -20 18 -24 19 -13 4 14 -18 14 -19 -2 -6 -10 7 -16 16
-13 20 6 11 -86 98 -110 105 -16 5 -34 -8 -78 -52z"/>
<path d="M4000 6023 c0 -38 42 -180 80 -275 47 -117 99 -210 179 -315 88 -116
88 -116 158 -104 64 12 170 60 197 90 16 18 15 22 -24 100 -76 152 -120 306
-120 426 l0 42 -57 16 c-103 28 -174 37 -295 37 -106 0 -118 -2 -118 -17z"/>
<path d="M5940 6029 c-25 -5 -73 -16 -107 -25 -63 -17 -63 -17 -63 -54 0 -56
-27 -201 -52 -277 -12 -38 -42 -106 -65 -152 -41 -80 -42 -85 -26 -103 26 -29
133 -78 193 -87 53 -9 56 -8 89 22 55 52 144 178 194 275 46 88 119 290 131
363 6 32 4 37 -16 43 -33 8 -225 5 -278 -5z"/>
<path d="M5233 5828 c0 -52 7 -46 21 20 6 25 4 32 -7 32 -11 0 -15 -12 -14
-52z"/>
<path d="M4981 5858 c-2 -47 116 -318 139 -318 10 0 58 84 79 138 22 55 27 76
12 53 -7 -11 -14 -11 -40 2 -18 9 -31 11 -31 5 0 -6 -7 -5 -16 3 -9 8 -27 12
-40 11 -17 -3 -24 2 -24 13 0 11 -5 15 -15 11 -8 -3 -15 -1 -15 4 0 5 -6 15
-13 22 -8 7 -19 27 -25 43 -6 17 -11 22 -11 13z"/>
<path d="M5275 5350 c10 -11 20 -20 23 -20 3 0 -3 9 -13 20 -10 11 -20 20 -23
20 -3 0 3 -9 13 -20z"/>
<path d="M5529 5353 c-1 -4 -1 -11 0 -15 0 -5 -3 -8 -7 -8 -5 0 -18 -9 -29
-19 -12 -11 -37 -28 -57 -39 l-36 -19 68 -31 c186 -85 379 -93 585 -26 42 14
77 28 77 31 0 3 -65 3 -144 -1 -113 -6 -157 -4 -210 8 -75 18 -153 54 -208 98
-21 16 -39 26 -39 21z"/>
<path d="M5041 5280 l-74 -69 24 -20 c13 -11 47 -34 76 -51 l52 -32 69 45 c38
25 72 49 75 54 4 7 -134 144 -145 143 -2 -1 -36 -32 -77 -70z"/>
<path d="M4830 5136 c-14 -8 -65 -26 -113 -41 l-89 -28 79 -42 c43 -23 130
-74 193 -114 212 -134 424 -224 630 -268 131 -28 387 -25 499 5 112 31 193 73
253 133 l49 49 -20 28 c-35 50 -156 158 -213 190 l-56 32 -98 -15 c-131 -21
-220 -48 -328 -102 l-88 -44 -69 12 c-38 7 -69 15 -69 18 0 3 47 31 105 61
l105 55 -78 26 c-42 14 -91 33 -109 42 -18 9 -36 17 -40 17 -5 0 -39 -22 -77
-50 -37 -27 -92 -61 -122 -76 l-54 -27 -63 32 c-34 17 -89 51 -122 76 -65 49
-69 50 -105 31z"/>
<path d="M4120 5039 c-65 -42 -179 -149 -200 -188 -9 -19 -4 -28 40 -72 166
-166 491 -182 843 -43 51 20 96 40 100 43 8 8 -192 140 -278 183 -106 54 -183
81 -270 93 -49 7 -108 16 -130 20 -36 6 -47 2 -105 -36z"/>
<path d="M4412 3857 c-22 -23 -22 -26 -22 -420 0 -384 1 -398 20 -417 26 -26
90 -27 113 -2 13 14 17 38 17 93 l0 74 41 34 c47 39 33 49 154 -102 86 -107
92 -112 132 -115 34 -3 44 1 62 24 32 40 27 69 -23 122 -24 26 -71 80 -104
121 l-60 74 74 59 c40 33 83 71 94 85 42 54 9 133 -56 133 -20 0 -40 -7 -49
-17 -8 -10 -31 -37 -52 -61 -42 -50 -186 -172 -202 -172 -8 0 -11 70 -11 235
0 222 -1 236 -20 255 -28 28 -81 26 -108 -3z"/>
<path d="M2023 3835 c-36 -25 -36 -57 1 -172 19 -60 58 -184 86 -278 94 -310
110 -355 135 -371 36 -23 104 -15 127 16 10 14 49 123 88 244 38 120 71 221
73 223 3 2 17 -36 31 -84 91 -293 120 -377 137 -394 13 -13 33 -19 63 -19 58
0 77 23 115 144 160 500 191 602 191 631 0 67 -73 98 -124 53 -20 -18 -40 -76
-101 -283 -42 -143 -80 -263 -84 -268 -6 -6 -69 184 -136 411 -20 66 -45 92
-89 92 -58 0 -69 -20 -141 -250 -37 -118 -70 -225 -73 -237 -7 -34 -18 -28
-30 15 -30 114 -142 484 -152 501 -21 41 -78 53 -117 26z"/>
<path d="M3306 3614 c-69 -22 -156 -110 -182 -184 -23 -69 -23 -168 0 -236 76
-228 404 -273 553 -76 66 87 81 231 36 334 -27 59 -92 124 -152 151 -61 27
-187 33 -255 11z m196 -146 c70 -40 101 -122 78 -208 -39 -144 -232 -169 -301
-40 -23 42 -25 139 -5 178 44 85 145 116 228 70z"/>
<path d="M4093 3619 c-18 -5 -48 -25 -67 -44 l-34 -34 -12 30 c-15 36 -37 49
-83 49 -53 0 -86 -49 -64 -98 7 -17 14 -111 17 -260 6 -262 6 -262 80 -262 66
0 70 13 70 212 0 165 1 177 23 209 12 19 39 42 60 53 36 17 40 17 90 0 29 -9
63 -16 76 -16 76 5 89 112 18 148 -37 20 -131 27 -174 13z"/>
<path d="M5223 3616 c-51 -17 -116 -63 -149 -108 -48 -63 -58 -97 -58 -203 0
-89 2 -105 26 -150 30 -58 90 -119 132 -135 98 -37 197 -32 266 14 l35 23 28
-28 c74 -75 167 4 118 100 -19 37 -21 58 -21 235 l0 196 -40 20 c-93 48 -247
64 -337 36z m186 -137 l31 -11 0 -137 c0 -148 -1 -151 -58 -181 -35 -18 -108
-14 -145 7 -65 37 -94 142 -62 221 40 94 135 135 234 101z"/>
<path d="M5835 3615 c-77 -30 -115 -84 -115 -167 0 -97 44 -139 185 -183 95
-29 125 -48 125 -78 0 -33 -12 -46 -51 -57 -44 -13 -93 -4 -146 26 -54 31 -86
31 -112 -2 -28 -36 -26 -66 5 -97 64 -65 243 -83 345 -36 75 35 102 75 107
154 5 100 -44 154 -180 199 -95 31 -115 41 -128 66 -8 15 -6 24 10 40 26 26
100 26 159 0 52 -24 70 -25 99 -4 44 31 24 92 -41 126 -55 28 -202 35 -262 13z"/>
<path d="M6475 3616 c-95 -30 -149 -78 -190 -169 -33 -72 -37 -185 -10 -268
25 -73 101 -150 170 -169 92 -26 179 -15 247 32 26 18 26 18 56 -12 37 -37 74
-39 107 -5 30 29 31 58 5 108 -18 33 -20 56 -20 233 l0 195 -53 24 c-96 44
-229 57 -312 31z m196 -143 c5 -5 8 -73 7 -153 l-3 -143 -39 -20 c-78 -41
-170 -17 -206 53 -49 97 -9 232 80 269 29 13 147 8 161 -6z"/>
<path d="M7227 3616 c-41 -15 -64 -30 -89 -60 -17 -21 -17 -21 -26 4 -25 66
-106 81 -145 28 -19 -26 -19 -29 -4 -70 14 -36 17 -82 17 -251 0 -250 5 -267
81 -267 68 0 73 16 79 231 l5 189 30 30 c38 38 88 47 138 26 59 -24 67 -55 67
-261 0 -162 2 -177 20 -195 12 -12 33 -20 55 -20 22 0 43 8 55 20 19 19 20 33
20 213 0 228 -10 277 -69 336 -57 57 -152 76 -234 47z"/>
<path d="M3100 2681 c0 -72 4 -131 9 -131 21 0 25 250 4 257 -10 4 -13 -26
-13 -126z"/>
<path d="M4350 2680 c0 -101 3 -131 13 -127 9 3 12 37 12 127 0 90 -3 124 -12
128 -10 3 -13 -27 -13 -128z"/>
<path d="M4445 2798 c-12 -29 0 -241 13 -246 15 -5 18 243 2 253 -6 3 -13 0
-15 -7z"/>
<path d="M4756 2803 c-3 -3 -6 -59 -6 -124 0 -113 1 -117 23 -123 48 -13 79
-6 108 23 63 63 13 165 -72 146 -28 -6 -29 -6 -29 34 0 38 -10 57 -24 44z
m108 -119 c39 -39 4 -109 -51 -102 -25 3 -28 7 -31 46 -2 24 2 50 9 58 15 19
54 18 73 -2z"/>
<path d="M6540 2680 c0 -139 14 -173 25 -64 6 56 11 67 32 77 34 15 51 -6 54
-68 3 -58 8 -75 20 -75 6 0 9 34 7 77 -3 73 -5 79 -30 91 -18 9 -34 9 -52 2
-25 -9 -26 -8 -26 24 0 40 -8 66 -21 66 -5 0 -9 -58 -9 -130z"/>
<path d="M3924 2781 c-68 -41 -72 -142 -8 -200 33 -31 40 -33 86 -29 47 5 90
30 75 44 -4 4 -18 2 -32 -4 -48 -22 -91 -15 -119 19 -38 45 -32 111 13 146 19
15 87 17 96 3 8 -13 45 -13 45 0 0 15 -56 40 -92 40 -18 0 -47 -9 -64 -19z"/>
<path d="M6131 2685 c-28 -63 -51 -120 -51 -125 0 -20 20 -9 35 20 15 28 19
30 75 30 56 0 60 -2 75 -30 16 -32 35 -40 35 -16 0 16 -78 204 -93 224 -5 6
-13 12 -17 12 -4 0 -31 -52 -59 -115z m109 -41 c0 -2 -20 -4 -45 -4 -25 0 -45
4 -45 9 0 5 9 31 21 58 l21 48 24 -54 c13 -29 24 -55 24 -57z"/>
<path d="M6744 2789 c-8 -14 11 -33 25 -25 6 4 11 14 11 22 0 16 -26 19 -36 3z"/>
<path d="M2892 2675 c2 -68 7 -115 13 -115 6 0 11 22 13 50 l3 50 55 0 c41 0
54 4 54 15 0 12 -13 15 -55 15 l-55 0 0 40 0 40 65 0 c37 0 65 4 65 10 0 6
-33 10 -80 10 l-81 0 3 -115z"/>
<path d="M5560 2756 c0 -13 -7 -26 -15 -30 -8 -3 -15 -10 -15 -16 0 -5 7 -10
15 -10 12 0 15 -13 15 -58 0 -66 21 -96 61 -90 33 5 35 26 2 30 -27 3 -28 6
-31 61 -3 55 -2 57 23 57 14 0 25 5 25 10 0 6 -11 10 -25 10 -21 0 -25 5 -25
30 0 20 -5 30 -15 30 -9 0 -15 -9 -15 -24z"/>
<path d="M3225 2718 c-67 -39 -58 -140 15 -163 86 -27 146 81 81 146 -31 30
-63 36 -96 17z m77 -35 c36 -33 14 -103 -33 -103 -39 0 -59 19 -59 55 0 58 51
85 92 48z"/>
<path d="M3391 2708 c1 -31 51 -150 64 -152 5 0 18 23 29 52 10 29 21 50 25
47 3 -4 13 -27 22 -53 9 -26 22 -47 29 -47 16 0 74 155 61 168 -12 12 -20 -3
-41 -72 -10 -31 -20 -49 -23 -41 -29 85 -40 110 -48 110 -6 0 -17 -17 -25 -37
-8 -21 -18 -47 -22 -57 -7 -15 -13 -7 -31 42 -22 62 -42 81 -40 40z"/>
<path d="M4149 2701 c-20 -20 -29 -39 -29 -61 0 -43 47 -90 90 -90 43 0 80 39
80 84 0 48 -8 65 -41 81 -42 22 -67 18 -100 -14z m101 -17 c20 -23 16 -75 -5
-90 -59 -44 -128 33 -78 88 20 22 66 24 83 2z"/>
<path d="M4584 2720 c-30 -12 -54 -49 -54 -83 0 -56 83 -110 118 -75 8 8 15 8
26 -1 21 -17 23 -5 18 81 -4 68 -7 77 -26 82 -29 8 -57 6 -82 -4z m76 -68 c0
-26 -5 -53 -12 -60 -30 -30 -88 1 -88 46 0 37 27 62 67 62 33 0 33 0 33 -48z"/>
<path d="M5003 2720 c-58 -24 -68 -109 -16 -150 70 -55 167 19 132 102 -11 28
-55 59 -81 57 -7 0 -23 -4 -35 -9z m87 -52 c13 -25 13 -31 0 -55 -19 -34 -63
-42 -91 -17 -23 21 -24 52 -3 82 23 33 73 27 94 -10z"/>
<path d="M5240 2720 c-8 -5 -25 -7 -37 -3 -23 5 -23 3 -23 -82 0 -65 3 -86 13
-83 7 3 13 28 15 66 3 69 20 88 67 76 19 -5 25 -2 25 10 0 9 -4 16 -9 16 -5 0
-15 2 -23 5 -7 3 -20 1 -28 -5z"/>
<path d="M5384 2721 c-56 -24 -72 -104 -29 -146 26 -27 54 -31 86 -14 15 7 24
7 34 -1 7 -6 15 -7 18 -3 6 10 -7 150 -15 158 -11 11 -73 15 -94 6z m71 -75
c0 -58 -18 -76 -62 -60 -22 7 -29 17 -31 43 -4 44 22 73 62 69 30 -3 31 -5 31
-52z"/>
<path d="M5724 2718 c-50 -24 -57 -96 -15 -139 31 -31 53 -35 96 -19 37 14 22
29 -23 23 -28 -4 -43 0 -55 12 -29 28 -19 35 48 35 61 0 65 1 65 23 -1 26 -17
49 -47 65 -26 14 -41 14 -69 0z m74 -30 c26 -26 13 -38 -38 -38 -34 0 -50 4
-50 13 0 21 22 37 50 37 14 0 31 -5 38 -12z"/>
<path d="M6371 2704 c-82 -68 6 -194 100 -143 30 16 13 28 -31 22 -50 -7 -70
8 -70 53 0 49 24 67 77 59 48 -7 57 5 18 23 -39 18 -60 15 -94 -14z"/>
<path d="M6880 2717 c-14 -7 -31 -25 -38 -40 -36 -75 46 -155 119 -117 27 15
24 33 -3 24 -13 -4 -31 -7 -42 -6 -19 1 -56 29 -56 43 0 4 30 9 68 11 65 3 67
4 64 28 -4 29 -45 70 -70 70 -9 0 -28 -6 -42 -13z m68 -29 c26 -26 13 -38 -38
-38 -54 0 -59 4 -33 32 18 21 53 24 71 6z"/>
<path d="M7270 2717 c-49 -25 -61 -96 -23 -139 20 -23 75 -33 102 -19 35 19
24 31 -22 25 -34 -5 -45 -2 -61 15 -23 25 -15 29 64 33 52 3 55 4 52 28 -5 50
-66 81 -112 57z m75 -37 c24 -27 17 -32 -44 -28 -51 3 -51 3 -36 26 20 27 56
28 80 2z"/>
<path d="M6750 2634 c0 -64 3 -85 13 -82 8 3 13 32 15 86 2 68 0 82 -13 82
-12 0 -15 -15 -15 -86z"/>
<path d="M7030 2711 c0 -20 70 -161 80 -161 10 0 80 140 80 161 0 5 -6 9 -13
9 -7 0 -23 -27 -36 -60 -13 -33 -27 -60 -30 -60 -3 0 -17 27 -29 60 -14 34
-30 60 -38 60 -8 0 -14 -4 -14 -9z"/>
<path d="M3675 2581 c-8 -15 3 -31 21 -31 9 0 14 7 12 17 -4 20 -24 28 -33 14z"/>
<path d="M5894 2579 c-10 -17 13 -36 27 -22 12 12 4 33 -11 33 -5 0 -12 -5
-16 -11z"/>
<path d="M7440 2570 c0 -11 7 -20 15 -20 8 0 15 9 15 20 0 11 -7 20 -15 20 -8
0 -15 -9 -15 -20z"/>
</g>
</svg>
